<?xml version="1.0" encoding="utf-8"?>
<!-- Generator: Adobe Illustrator 24.0.2, SVG Export Plug-In . SVG Version: 6.00 Build 0)  -->
<svg version="1.1" id="Layer_1" xmlns="http://www.w3.org/2000/svg" xmlns:xlink="http://www.w3.org/1999/xlink" x="0px" y="0px"
	 viewBox="0 0 1200 1200" style="enable-background:new 0 0 1200 1200;" xml:space="preserve">
<style type="text/css">
	.st0{fill-rule:evenodd;clip-rule:evenodd;fill:#38BDF8;}
	.st1{fill-rule:evenodd;clip-rule:evenodd;fill:#41B883;stroke:#FFFFFF;stroke-width:54;stroke-miterlimit:10;}
	.st2{display:none;fill-rule:evenodd;clip-rule:evenodd;fill:#41B883;stroke:#FFFFFF;stroke-width:20;stroke-miterlimit:10;}
	.st3{fill-rule:evenodd;clip-rule:evenodd;fill:#FF2D20;}
	.st4{fill:#FF2D20;}
	.st5{fill:#41B883;}
	.st6{fill:#38BDF8;}
	.st7{fill:#FFFFFF;}
</style>
<g>
	<path class="st0" d="M209.6,726.9c2.3-407.2,3.5-610.8,3.5-610.8c0.8-12.1,16.5-17.1,23.6-4.9l163.1,258.2l0.4-0.2L523.7,564
		c-49.5,27.1-83.1,79.6-83.1,140c0,88.1,71.4,159.5,159.5,159.5c88.1,0,159.5-71.4,159.5-159.5c0-56.2-29.1-105.7-73.1-134.1
		l123.2-194.4c21,13.4,41,29,59.6,46.7c126.9,120.9,157.8,311.6,75.4,466.4c-82.3,154.8-257.7,235.8-428.9,198.1
		C344.5,1049,219.4,901.9,209.6,726.9"/>
	<path class="st1" d="M600.1,424.7c154.3,0,279.3,125.1,279.3,279.3S754.3,983.3,600.1,983.3c-154.3,0-279.3-125.1-279.3-279.3
		S445.8,424.7,600.1,424.7"/>
	<path class="st2" d="M600.1,505.1c109.8,0,198.9,89,198.9,198.9s-89,198.9-198.9,198.9c-109.8,0-198.9-89-198.9-198.9
		S490.2,505.1,600.1,505.1"/>
	<path class="st3" d="M600.1,583.5c66.6,0,120.5,54,120.5,120.5s-54,120.5-120.5,120.5c-66.6,0-120.5-54-120.5-120.5
		S533.5,583.5,600.1,583.5"/>
</g>
<rect x="1460.6" y="14.2" class="st4" width="46" height="134.1"/>
<rect x="1506.6" y="14.2" class="st5" width="44.7" height="134.1"/>
<rect x="1551.1" y="14.2" class="st6" width="44.7" height="134.1"/>
<g>
	<path class="st7" d="M1467.5,142.1V136h26.3v-8.9h5.8v15H1467.5z"/>
	<path class="st7" d="M1475.9,105.6v-6h23.7v6h-2.5c1.1,1.2,1.9,2.3,2.4,3.5c0.5,1.2,0.7,2.4,0.7,3.8c0,3.1-1.2,5.7-3.6,8
		c-2.4,2.2-5.3,3.4-8.9,3.4c-3.7,0-6.7-1.1-9-3.2c-2.3-2.2-3.5-4.8-3.5-7.9c0-1.4,0.3-2.8,0.8-4c0.5-1.3,1.3-2.4,2.4-3.5H1475.9z
		 M1480.8,111.8c0,1.8,0.7,3.4,2,4.6c1.3,1.2,3,1.8,5,1.8c2.1,0,3.7-0.6,5.1-1.9s2-2.8,2-4.6c0-1.9-0.7-3.4-2-4.7
		c-1.3-1.2-3-1.8-5.1-1.8c-2.1,0-3.7,0.6-5,1.8C1481.4,108.4,1480.8,109.9,1480.8,111.8z"/>
	<path class="st7" d="M1475.9,95v-5.1h3c-1.2-0.6-2.1-1.3-2.7-2.2s-0.9-1.9-0.9-3c0-0.8,0.2-1.6,0.6-2.4l5.1,1.9
		c-0.3,0.7-0.5,1.3-0.5,1.7c0,0.9,0.6,1.7,1.7,2.3c1.1,0.6,3.4,0.9,6.7,0.9l1.2,0h9.6V95H1475.9z"/>
	<path class="st7" d="M1475.9,61.8v-6h23.7v6h-2.5c1.1,1.2,1.9,2.3,2.4,3.5c0.5,1.2,0.7,2.4,0.7,3.8c0,3.1-1.2,5.7-3.6,8
		c-2.4,2.2-5.3,3.4-8.9,3.4c-3.7,0-6.7-1.1-9-3.2c-2.3-2.2-3.5-4.8-3.5-7.9c0-1.4,0.3-2.8,0.8-4c0.5-1.3,1.3-2.4,2.4-3.5H1475.9z
		 M1480.8,68c0,1.8,0.7,3.4,2,4.6c1.3,1.2,3,1.8,5,1.8c2.1,0,3.7-0.6,5.1-1.9s2-2.8,2-4.6c0-1.9-0.7-3.4-2-4.7
		c-1.3-1.2-3-1.8-5.1-1.8c-2.1,0-3.7,0.6-5,1.8C1481.4,64.6,1480.8,66.1,1480.8,68z"/>
</g>
<g>
	<path class="st7" d="M1512.2,141.9v-6.3l22.8-8.1l-22.8-8.2V113l32.1,11.6v5.9L1512.2,141.9z"/>
	<path class="st7" d="M1520.5,108.8v-6h11.4c2.2,0,3.8-0.2,4.6-0.5c0.9-0.3,1.5-0.8,2-1.5c0.5-0.7,0.7-1.5,0.7-2.5
		c0-1-0.2-1.8-0.7-2.5c-0.5-0.7-1.2-1.2-2.1-1.5c-0.7-0.2-2.1-0.4-4.4-0.4h-11.6v-6h10.1c4.1,0,7,0.3,8.5,1c1.9,0.8,3.3,2,4.3,3.5
		c1,1.6,1.5,3.5,1.5,5.9c0,2.6-0.6,4.7-1.7,6.3c-1.2,1.6-2.8,2.7-4.9,3.4c-1.4,0.5-4.1,0.7-7.9,0.7H1520.5z"/>
	<path class="st7" d="M1534.1,58.2v19.1c1.7-0.3,3-1,4-2.2c1-1.2,1.5-2.7,1.5-4.6c0-2.2-0.8-4.1-2.3-5.7l2.4-5
		c1.8,1.3,3.1,2.8,3.9,4.5c0.9,1.7,1.3,3.8,1.3,6.2c0,3.7-1.2,6.8-3.5,9.1c-2.3,2.3-5.3,3.5-8.8,3.5c-3.6,0-6.6-1.2-9-3.5
		c-2.4-2.3-3.6-5.3-3.6-8.8c0-3.7,1.2-6.8,3.6-9.1c2.4-2.3,5.6-3.5,9.5-3.5L1534.1,58.2z M1529.4,64.1c-1.3,0.4-2.4,1.2-3.2,2.3
		c-0.8,1.2-1.2,2.5-1.2,4c0,1.7,0.5,3.1,1.4,4.4c0.6,0.8,1.6,1.5,3.1,2.2V64.1z"/>
</g>
<g>
	<path class="st7" d="M1557,141.8V124h6v5.8h26.1v6.2H1563v5.7H1557z"/>
	<path class="st7" d="M1565.3,103v-6h23.7v6h-2.5c1.1,1.2,1.9,2.3,2.4,3.5c0.5,1.2,0.7,2.4,0.7,3.8c0,3.1-1.2,5.7-3.6,8
		c-2.4,2.2-5.3,3.4-8.9,3.4c-3.7,0-6.7-1.1-9-3.2c-2.3-2.2-3.5-4.8-3.5-7.9c0-1.4,0.3-2.8,0.8-4c0.5-1.3,1.3-2.4,2.4-3.5H1565.3z
		 M1570.2,109.2c0,1.8,0.7,3.4,2,4.6c1.3,1.2,3,1.8,5,1.8c2.1,0,3.7-0.6,5.1-1.9s2-2.8,2-4.6c0-1.9-0.7-3.4-2-4.7
		c-1.3-1.2-3-1.8-5.1-1.8c-2.1,0-3.7,0.6-5,1.8C1570.9,105.8,1570.2,107.4,1570.2,109.2z"/>
	<path class="st7" d="M1555.6,88.7c0-1,0.4-1.9,1.1-2.7c0.8-0.7,1.7-1.1,2.8-1.1c1.1,0,2,0.4,2.7,1.1c0.8,0.7,1.1,1.6,1.1,2.7
		c0,1.1-0.4,2-1.1,2.7c-0.8,0.7-1.7,1.1-2.8,1.1c-1,0-1.9-0.4-2.7-1.1C1555.9,90.6,1555.6,89.7,1555.6,88.7z M1565.3,91.6v-6h23.7v6
		H1565.3z"/>
	<path class="st7" d="M1556.2,80.9v-6h32.9v6H1556.2z"/>
</g>
<g>
</g>
<g>
</g>
<g>
</g>
<g>
</g>
<g>
</g>
<g>
</g>
</svg>
