<?xml version="1.0" encoding="utf-8"?>
<!-- Generator: Adobe Illustrator 24.0.2, SVG Export Plug-In . SVG Version: 6.00 Build 0)  -->
<svg version="1.1" id="Layer_1" xmlns="http://www.w3.org/2000/svg" xmlns:xlink="http://www.w3.org/1999/xlink" x="0px" y="0px"
	 viewBox="0 0 1200 1200" style="enable-background:new 0 0 1200 1200;" xml:space="preserve">
<style type="text/css">
	.st0{fill:#FF2D20;}
	.st1{fill:#41B883;}
	.st2{fill:#38BDF8;}
	.st3{fill:#FFFFFF;}
</style>
<rect x="-250.7" y="512.4" class="st0" width="32.7" height="95.4"/>
<rect x="-218" y="512.4" class="st1" width="31.8" height="95.4"/>
<rect x="-186.3" y="512.4" class="st2" width="31.8" height="95.4"/>
<g>
	<path class="st2" d="M66.7,945.8V254.2c0-8.2,6.7-14.9,14.9-14.9h1036.9c8.2,0,14.9,6.7,14.9,14.9v691.6c0,8.2-6.7,14.9-14.9,14.9
		H81.5C73.3,960.7,66.7,954,66.7,945.8z"/>
	<path class="st1" d="M1087.1,308.1v583.8c0,12.4-10.1,22.5-22.5,22.5H135.5c-12.4,0-22.5-10.1-22.5-22.5V308.1
		c0-12.4,10.1-22.5,22.5-22.5h929.1C1077,285.6,1087.1,295.7,1087.1,308.1z"/>
	<path class="st0" d="M1087.1,308.1v84.5H112.9v-84.5c0-12.4,10.1-22.5,22.5-22.5h929.1C1077,285.6,1087.1,295.7,1087.1,308.1z"/>
	<path class="st3" d="M1020.1,335.4c0,8.3,6.7,15,15,15c8.3,0,15-6.7,15-15c0-8.3-6.7-15-15-15
		C1026.8,320.5,1020.1,327.2,1020.1,335.4z"/>
	<path class="st3" d="M958.9,335.4c0,8.3,6.7,15,15,15c8.3,0,15-6.7,15-15c0-8.3-6.7-15-15-15C965.6,320.5,958.9,327.2,958.9,335.4z
		"/>
	<path class="st3" d="M894.7,335.4c0,8.3,6.7,15,15,15s15-6.7,15-15c0-8.3-6.7-15-15-15S894.7,327.2,894.7,335.4z"/>
	<path class="st3" d="M1002,736.9H191c-6.8,0-12.3-5.5-12.3-12.3l0,0c0-6.8,5.5-12.3,12.3-12.3h811c6.8,0,12.3,5.5,12.3,12.3l0,0
		C1014.3,731.4,1008.8,736.9,1002,736.9z"/>
	<path class="st3" d="M1002,798.5H191c-6.8,0-12.3-5.5-12.3-12.3l0,0c0-6.8,5.5-12.3,12.3-12.3h811c6.8,0,12.3,5.5,12.3,12.3l0,0
		C1014.3,793,1008.8,798.5,1002,798.5z"/>
	<path class="st3" d="M365.6,860.1H191c-6.8,0-12.3-5.5-12.3-12.3l0,0c0-6.8,5.5-12.3,12.3-12.3h174.6c6.8,0,12.3,5.5,12.3,12.3l0,0
		C377.9,854.6,372.4,860.1,365.6,860.1z"/>
	<path class="st3" d="M681.9,860.1H507.3c-6.8,0-12.3-5.5-12.3-12.3l0,0c0-6.8,5.5-12.3,12.3-12.3h174.6c6.8,0,12.3,5.5,12.3,12.3
		l0,0C694.2,854.6,688.7,860.1,681.9,860.1z"/>
	<path class="st3" d="M998.1,860.1H823.5c-6.8,0-12.3-5.5-12.3-12.3l0,0c0-6.8,5.5-12.3,12.3-12.3h174.6c6.8,0,12.3,5.5,12.3,12.3
		l0,0C1010.4,854.6,1004.9,860.1,998.1,860.1z"/>
	<g>
		<path class="st3" d="M466,618.7v52.1c-10.5,3.4-19.9,5.1-28.3,5.1c-28.8,0-52.2-10.8-70.1-32.4c-17.9-21.6-26.9-50.1-26.9-85.3
			c0-32.7,9-59.8,27.1-81.1c18.1-21.3,40.9-31.9,68.5-31.9c10.7,0,20.6,1.4,29.6,4.3v52.2c-9.5-3.2-18.5-4.8-26.9-4.8
			c-12.9,0-23.7,5.9-32.2,17.7c-8.5,11.8-12.8,26.9-12.8,45.2c0,19.7,4.3,35.3,12.9,46.7c8.6,11.4,20.1,17.2,34.4,17.2
			C448.3,623.6,456.6,622,466,618.7z"/>
		<path class="st3" d="M514.1,451.2H577c9,47.3,16,88,21.2,122l5.4-34c2.2-13.2,4.5-26.2,7.1-38.8l9.7-49.3h64.2l25,219.3h-49.3
			L647,519.7l-30.7,150.8h-33.7l-32.2-151.1l-12.8,151.1h-47.1L514.1,451.2z"/>
		<path class="st3" d="M748.8,666.4v-51.1c15.8,9.2,29,13.8,39.7,13.8c6.2,0,11.2-1.7,14.8-5.2c3.6-3.5,5.4-8,5.4-13.7
			c0-4.4-1.5-8.5-4.4-12.3c-2.9-3.8-7.9-8.5-15-14c-17.2-13.1-29.6-25.4-37.4-36.7c-7.7-11.3-11.6-24-11.6-37.9
			c0-18.9,6-34.4,17.9-46.3c11.9-11.9,27.4-17.9,46.3-17.9c14,0,27.9,3,41.7,9v49.1c-14.8-8.1-26.8-12.2-36-12.2
			c-6.1,0-11,1.5-14.5,4.5c-3.6,3-5.3,7.1-5.3,12.4c0,9.2,8.3,19.5,24.8,31c9.9,6.8,19.8,16.3,30,28.7
			c10.1,12.3,15.2,26.6,15.2,42.8c0,18.9-6.6,34.6-19.9,47.1c-13.3,12.4-30.1,18.6-50.4,18.6C776.3,676.2,762.5,672.9,748.8,666.4z"
			/>
	</g>
</g>
<g>
</g>
<g>
</g>
<g>
</g>
<g>
</g>
<g>
</g>
<g>
</g>
</svg>
